# xmcd
#
# Track frame offsets: 
#        150
#        12455
#        25555
#        40662
#        51380
#        64042
#        74817
#        87442
#        99215
#        112437
#        125225
#        140430
#        157555
#        170257
#        180837
#        191230
#
# Disc length: 2644 seconds
#
# Revision: 2
# Processed by: cddbd v1.5.2PL0 Copyright (c) Steve Scherf et al.
# Submitted via: ExactAudioCopy v0.99pb5
#
DISCID=db0a5210
DTITLE=Franz Posch - Meine liabsten Stückln
DYEAR=1992
DGENRE=Folk
TTITLE0=Wasserleitungsmarsch
TTITLE1=Hochzeitslandler
TTITLE2=Weinhauer-Marsch
TTITLE3=Harmonika-Franzl
TTITLE4=Hausl-Boarischer
TTITLE5=Wildschönauer-Landler
TTITLE6=Gamsjager-Marsch
TTITLE7=Stricker-Landler
TTITLE8=Holzhacker-Marsch
TTITLE9=Tanzl
TTITLE10=Der Hopfgartner
TTITLE11=Brennersee-Walzer
TTITLE12=Stoanriegler-Marsch
TTITLE13=Stelzegger-Landler
TTITLE14=Lustige Hoamroas
TTITLE15=Altspatzl-Landler
EXTD=
EXTT0=
EXTT1=
EXTT2=
EXTT3=
EXTT4=
EXTT5=
EXTT6=
EXTT7=
EXTT8=
EXTT9=
EXTT10=
EXTT11=
EXTT12=
EXTT13=
EXTT14=
EXTT15=
PLAYORDER=
